<svg xmlns="http://www.w3.org/2000/svg" enable-background="new 0 0 60 60" viewBox="0 0 60 60" id="apple-translate">
  <g>
    <path fill="#FFF" d="M50,60H10C4.477,60,0,55.523,0,50V10C0,4.477,4.477,0,10,0h40c5.523,0,10,4.477,10,10v40
		C60,55.523,55.523,60,50,60z"></path>
  </g>
  <g>
    <path fill="#A7D3FC" d="M28.111,11H14.253c-1.917,0-3.59,1.355-3.928,3.242c-1.625,9.073-1.625,20.443,0,29.516
		C10.663,45.645,12.336,47,14.253,47h23.858L28.111,11z"></path>
    <g>
      <path fill="#0082F7" d="M50,28.75H34c-0.414,0-0.75-0.336-0.75-0.75s0.336-0.75,0.75-0.75h16c0.414,0,0.75,0.336,0.75,0.75
			S50.414,28.75,50,28.75z"></path>
      <path fill="#0082F7" d="M42 28.75c-.414 0-.75-.336-.75-.75v-4c0-.414.336-.75.75-.75s.75.336.75.75v4C42.75 28.414 42.414 28.75 42 28.75zM37.501 42.75c-.242 0-.48-.117-.625-.334-.229-.344-.137-.81.208-1.04C37.17 41.318 45.75 35.498 45.75 28c0-.414.336-.75.75-.75s.75.336.75.75c0 8.306-8.953 14.37-9.334 14.624C37.788 42.709 37.644 42.75 37.501 42.75z"></path>
      <path fill="#0082F7" d="M46.499,42.75c-0.143,0-0.287-0.041-0.415-0.126c-0.258-0.172-6.351-4.287-8.547-10.369
			c-0.141-0.39,0.061-0.819,0.45-0.96c0.389-0.14,0.819,0.061,0.96,0.45c2.026,5.61,7.91,9.592,7.969,9.631
			c0.345,0.23,0.438,0.696,0.208,1.04C46.979,42.633,46.741,42.75,46.499,42.75z"></path>
    </g>
    <path fill="#0082F7" d="M48.75,52.75H32c-0.337,0-0.633-0.225-0.723-0.55l-2.22-8c-0.11-0.398,0.123-0.812,0.522-0.923
		c0.396-0.11,0.812,0.123,0.923,0.522l2.067,7.45h16.18c1.574,0,2.917-1.104,3.191-2.624c1.609-9.021,1.609-20.231,0-29.254
		c-0.274-1.519-1.617-2.622-3.191-2.622H30.22c-0.414,0-0.75-0.336-0.75-0.75s0.336-0.75,0.75-0.75h18.53
		c2.301,0,4.264,1.622,4.668,3.856c1.639,9.188,1.639,20.6,0,29.785C53.014,51.128,51.051,52.75,48.75,52.75z"></path>
    <path fill="#0082F7" d="M38,44.75H11.253c-2.303,0-4.266-1.623-4.666-3.86c-1.645-9.185-1.645-20.595,0-29.779
		c0.4-2.237,2.363-3.86,4.666-3.86H28c0.337,0,0.633,0.225,0.723,0.549l10,36c0.062,0.227,0.017,0.469-0.126,0.655
		C38.455,44.641,38.234,44.75,38,44.75z M11.253,8.75c-1.576,0-2.917,1.104-3.189,2.624c-1.616,9.021-1.616,20.23,0,29.252
		c0.272,1.521,1.613,2.624,3.189,2.624h25.761L27.43,8.75H11.253z"></path>
    <path fill="#0082F7" d="M32,52.75c-0.042,0-0.085-0.004-0.127-0.011c-0.277-0.048-0.505-0.247-0.589-0.516l-2.5-8
		c-0.071-0.228-0.029-0.476,0.111-0.668c0.142-0.192,0.366-0.306,0.604-0.306H38c0.284,0,0.544,0.16,0.671,0.415
		c0.127,0.254,0.1,0.558-0.071,0.785l-6,8C32.457,52.641,32.233,52.75,32,52.75z M30.521,44.75l1.759,5.628L36.5,44.75H30.521z"></path>
    <path fill="#0082F7" d="M28,8l2.22,8h18.53c1.91,0,3.59,1.36,3.93,3.24c1.62,9.08,1.62,20.44,0,29.52
		C52.34,50.64,50.66,52,48.75,52H32l-2.22-8H11.25c-1.91,0-3.59-1.36-3.93-3.24c-1.62-9.08-1.62-20.44,0-29.52
		C7.66,9.36,9.34,8,11.25,8H28 M28,5.75H11.25c-3.027,0-5.611,2.141-6.144,5.09c-1.669,9.353-1.669,20.968-0.001,30.316
		c0.534,2.954,3.118,5.095,6.145,5.095h16.819l1.763,6.352c0.27,0.974,1.157,1.648,2.168,1.648h16.75
		c3.027,0,5.611-2.141,6.144-5.09c1.669-9.353,1.669-20.968,0.001-30.316c-0.534-2.954-3.118-5.095-6.145-5.095H31.931l-1.763-6.352
		C29.898,6.424,29.011,5.75,28,5.75L28,5.75z"></path>
    <path fill="#0082F7" d="M20,34.75c-4.825,0-8.75-3.925-8.75-8.75s3.925-8.75,8.75-8.75c2.337,0,4.534,0.91,6.188,2.562
		c0.293,0.293,0.293,0.768,0,1.061c-0.292,0.293-0.767,0.293-1.061,0c-1.37-1.369-3.19-2.123-5.127-2.123
		c-3.998,0-7.25,3.252-7.25,7.25s3.252,7.25,7.25,7.25c3.744,0,6.835-2.854,7.212-6.5H20c-0.414,0-0.75-0.336-0.75-0.75
		s0.336-0.75,0.75-0.75h8c0.414,0,0.75,0.336,0.75,0.75C28.75,30.825,24.825,34.75,20,34.75z"></path>
  </g>
</svg>
